# xmcd
#
# Track frame offsets:
#	150
#	27109
#	51640
#	75126
#	92964
#	109614
#	129709
#	144948
#	154130
#	167420
#	182010
#	194803
#
# Disc length: 2875
#
# Revision: 3
# Processed by: cddbd v1.5.1PL0 Copyright (c) Steve Scherf et al.
# Submitted via: audiograbber 1.81.03
# Normalized: r1:TDELIM( - ),TSWAP
#
DISCID=9b0b390c
DTITLE=Various Artist - Ultimate Soul Classics Vol 3 [CD3]
DYEAR=1900
DGENRE=R&B
TTITLE0=Peabo Bryson - Show and Tell
TTITLE1=Traci Spencer - Tender Kisses
TTITLE2=Meli'sa Morgan - Do Me Baby
TTITLE3=O'Bryan - Lovelite
TTITLE4=Shalamar - The Second Time Around
TTITLE5=The Manhattans - Kiss And Say Goodby
TTITLE6=Minnie Riperton - Lovin' You
TTITLE7=Fats Domino - I'm Walking
TTITLE8=The Friends Of Destinction - Grazing In The Grass
TTITLE9=Al Green - Let's Stay Togather
TTITLE10=The Whispers - Seems Like I Gotta Do Wrong
TTITLE11=Glady Knight and The Pips - Midnight Train To Georgia
EXTD=
EXTT0=
EXTT1=
EXTT2=
EXTT3=
EXTT4=
EXTT5=
EXTT6=
EXTT7=
EXTT8=
EXTT9=
EXTT10=
EXTT11=
PLAYORDER=
